<svg height="512" viewBox="0 0 60 60" width="512" xmlns="http://www.w3.org/2000/svg"><g id="Page-1" fill="none" fill-rule="evenodd"><g id="050---Toy-Car" fill-rule="nonzero" transform="translate(0 -1)"><path id="Shape" d="m15 42c-4.9705627 0-9 4.0294373-9 9 .00122638.6726367.07498614 1.3431799.22 2 .9353194 4.0960108 4.5785566 7.001097 8.78 7.001097s7.8446806-2.9050862 8.78-7.001097c.1450139-.6568201.2187736-1.3273633.22-2 0-4.9705627-4.0294373-9-9-9zm0 13c-2.209139 0-4-1.790861-4-4s1.790861-4 4-4 4 1.790861 4 4-1.790861 4-4 4z" fill="#607d8b"/><path id="Shape" d="m15 42c-.5028835.0032224-1.0046224.0483789-1.5.135 4.3269061.7313783 7.495553 4.4767189 7.5 8.865-.0012264.6726367-.0749861 1.3431799-.22 2-.8138245 3.5522022-3.6869003 6.2646541-7.28 6.873 4.707275.7984545 9.2188609-2.2179005 10.28-6.873.1450139-.6568201.2187736-1.3273633.22-2 0-4.9705627-4.0294373-9-9-9z" fill="#37474f"/><path id="Shape" d="m45 42c-4.9705627 0-9 4.0294373-9 9 .0012264.6726367.0749861 1.3431799.22 2 .9353194 4.0960108 4.5785566 7.001097 8.78 7.001097s7.8446806-2.9050862 8.78-7.001097c.1450139-.6568201.2187736-1.3273633.22-2 0-4.9705627-4.0294373-9-9-9zm0 13c-2.209139 0-4-1.790861-4-4s1.790861-4 4-4 4 1.790861 4 4-1.790861 4-4 4z" fill="#607d8b"/><path id="Shape" d="m45 42c-.5028835.0032224-1.0046224.0483789-1.5.135 4.3269061.7313783 7.495553 4.4767189 7.5 8.865-.0012264.6726367-.0749861 1.3431799-.22 2-.8138245 3.5522022-3.6869003 6.2646541-7.28 6.873 4.707275.7984545 9.2188609-2.2179005 10.28-6.873.1450139-.6568201.2187736-1.3273633.22-2 0-4.9705627-4.0294373-9-9-9z" fill="#37474f"/><circle id="Oval" cx="45" cy="51" fill="#cfd8dc" r="4"/><circle id="Oval" cx="15" cy="51" fill="#cfd8dc" r="4"/><path id="Shape" d="m58.06 40h-6.06c-1.1032019-.0032948-1.9967052-.8967981-2-2v-3h-4.61c-.8274893.0016438-1.5585399-.5385214-1.8-1.33l-3.27-10.46c-.7887189-2.5018915-3.1067361-4.2050071-5.73-4.21h-17.29c-3.0297687-.0029327-5.5863298 2.2533611-5.96 5.26l-1.15 9.22c-.1217079.8539684-.79530752 1.5234856-1.65 1.64-4.34839371.7148751-7.53961404 4.4732354-7.54 8.88v5c0 2.209139 1.790861 4 4 4h1.22c-.14501386-.6568201-.21877362-1.3273633-.22-2 .00000007-4.9705627 4.0294373-8.9999999 9-8.9999999s8.9999999 4.0294372 9 8.9999999c-.0012264.6726367-.0749861 1.3431799-.22 2h12.44c-.1450139-.6568201-.2187736-1.3273633-.22-2 0-4.9705627 4.0294373-9 9-9s9 4.0294373 9 9c-.0012264.6726367-.0749861 1.3431799-.22 2h1.22c2.209139 0 4-1.790861 4-4v-5c.0008975-1.3881642-.3209044-2.7575342-.94-4zm-34.06-9h-9.47l.78-6.25c.1291914-1.0005939.9811004-1.74976 1.99-1.75h6.7zm4 0v-8.0000391l6.59.0000391c.8756964-.0054724 1.6516243.5632706 1.91 1.4l2.06 6.6z" fill="#02a9f4"/><path id="Shape" d="m58.06 40h-3c.6190956 1.2424658.9408975 2.6118358.94 4v5c-.0033004 1.4807624-.8279914 2.8374004-2.141 3.522-.026.159-.045.322-.079.478h1.22c2.209139 0 4-1.790861 4-4v-5c.0008975-1.3881642-.3209044-2.7575342-.94-4z" fill="#0377bc"/><path id="Shape" d="m43.5 42.135c-2.6134702-.4592389-5.295993.2647537-7.3235143 1.9765609-2.0275213 1.7118073-3.1910331 4.2349668-3.1764857 6.8884391.0012264.6726367.0749861 1.3431799.22 2h3c-.1450139-.6568201-.2187736-1.3273633-.22-2 .004447-4.3882811 3.1730939-8.1336217 7.5-8.865z" fill="#0377bc"/><path id="Shape" d="m13.5 42.135c-2.6134702-.4592389-5.29599299.2647537-7.32351427 1.9765609-2.02752128 1.7118073-3.19103311 4.2349668-3.17648573 6.8884391.00452895.5103749.05169301 1.0194791.141 1.522.57107483.309414 1.2095049.4735719 1.859.478h1.22c-.14501386-.6568201-.21877362-1.3273633-.22-2 .00444702-4.3882811 3.17309391-8.1336217 7.5-8.865z" fill="#0377bc"/><path id="Shape" d="m24 23v8h-9.47l.78-6.25c.1291914-1.0005939.9811004-1.74976 1.99-1.75z" fill="#00838f"/><path id="Shape" d="m38.56 31h-10.56v-8.0000391l6.59.0000391c.8756964-.0054724 1.6516243.5632706 1.91 1.4z" fill="#00838f"/><path id="Shape" d="m58.06 40h-6.06c-1.1032019-.0032948-1.9967052-.8967981-2-2v-3c3.4181669.0008575 6.5408148 1.9379841 8.06 5z" fill="#ffdc00"/><path id="Shape" d="m32 2c-1.7337373.00041735-3.3823073.75175678-4.52 2.06-.3747187.42456324-.9137244.667755-1.48.667755s-1.1052813-.24319176-1.48-.667755c-1.7901633-2.05715245-4.7424392-2.6483481-7.1866936-1.43914127-2.4442545 1.20920682-3.7656406 3.91464277-3.2166362 6.58581389.5490044 2.67117108 2.8302984 4.63615008 5.5533298 4.78332738 1.1649569.0715525 2.324681-.2070599 3.33-.8v5.81h6v-5.81c1.005319.5929401 2.1650431.8715525 3.33.8 3.2378495-.1869736 5.7410574-2.9130803 5.6518276-6.15509617-.0892297-3.24201584-2.7385955-5.82630864-5.9818276-5.83490383zm-12 8c-1.1045695 0-2-.8954305-2-2s.8954305-2 2-2 2 .8954305 2 2c-.0032948 1.10320187-.8967981 1.9967052-2 2zm12 0c-1.1045695 0-2-.8954305-2-2s.8954305-2 2-2 2 .8954305 2 2c-.0032948 1.10320187-.8967981 1.9967052-2 2z" fill="#ffeb3a"/><path id="Shape" d="m32 2c-.5064909.00231191-1.0105973.06952609-1.5.2 2.9718969.76805723 4.8866532 3.65312925 4.44 6.69-.3778525 2.3766423-2.1270457 4.3040522-4.456 4.91.6016344.1592218 1.2246571.222334 1.846.187 3.2192369-.209777 5.696353-2.9275751 5.6075736-6.15241794-.0887793-3.2248428-2.7116711-5.8022386-5.9375736-5.83458206z" fill="#fdd834"/><path id="Shape" d="m26 13.19v5.81h3v-5.016c-1.0533318.0109312-2.0899839-.2634361-3-.794z" fill="#fdd834"/><g fill="#000"><path id="Shape" d="m45 46c-2.7614237 0-5 2.2385763-5 5s2.2385763 5 5 5 5-2.2385763 5-5c-.0033061-2.7600532-2.2399468-4.9966939-5-5zm0 8c-1.6568542 0-3-1.3431458-3-3s1.3431458-3 3-3 3 1.3431458 3 3-1.3431458 3-3 3z"/><path id="Shape" d="m15 46c-2.7614237 0-5 2.2385763-5 5s2.2385763 5 5 5 5-2.2385763 5-5c-.0033061-2.7600532-2.2399468-4.9966939-5-5zm0 8c-1.6568542 0-3-1.3431458-3-3s1.3431458-3 3-3 3 1.3431458 3 3-1.3431458 3-3 3z"/><path id="Shape" d="m58.988 39.646c-.0123816-.0297538-.0264031-.0587984-.042-.087-1.6854855-3.4004968-5.1507118-5.5537712-8.946-5.559h-4.61c-.3900124.0014585-.7351111-.2522906-.85-.625l-3.267-10.467c-.9115477-2.9236566-3.62054-4.9131425-6.683-4.908h-4.59v-3.29c1.9457591.5784673 4.0467566.2846951 5.759225-.8052842 1.7124684-1.0899794 2.8680904-2.8690325 3.167775-4.8767158.4596905-3.07703218-1.1666691-6.08820551-3.9919414-7.3910021-2.8252723-1.30279659-6.1713602-.58453068-8.2130586 1.7630021-.1831456.20652518-.4459657.32473365-.722.32473365s-.5388544-.11820847-.722-.32473365c-2.042445-2.34144602-5.3838878-3.05635167-8.2055864-1.7555949-2.8216985 1.30075678-4.4482861 4.30584302-3.9944136 7.3795949.5156893 3.2747543 3.2355055 5.7526797 6.544 5.962.8025412.0421824 1.6064548-.051123 2.378-.276v3.29h-4.7c-3.5302999.0069792-6.5065709 2.6339065-6.952 6.136l-1.148 9.216c-.0677833.412437-.40080155.729947-.816.778-4.84492089.7746671-8.40315887 4.9635756-8.384 9.87v5c.00330612 2.7600532 2.23994685 4.9966939 5 5h.461c1.31055242 4.1653895 5.1723059 6.9987538 9.539 6.9987538s8.2284476-2.8333643 9.539-6.9987538h10.922c1.3105524 4.1653895 5.1723059 6.9987538 9.539 6.9987538s8.2284476-2.8333643 9.539-6.9987538h.461c2.7600532-.0033061 4.9966939-2.2399468 5-5v-5c-.0014064-1.5094575-.3475407-2.9986559-1.012-4.354zm-2.753-.646h-4.235c-.5522847 0-1-.4477153-1-1v-1.931c2.0593533.2602814 3.9367155 1.311389 5.235 2.931zm-32.735-26.678c-.3110746-.1748351-.6914035-.1721727-1 .007-.836459.4916228-1.800589.7224709-2.769.663-2.3593005-.146946-4.2999208-1.9129604-4.668-4.248-.3312149-2.19861271.8291998-4.35180836 2.8477317-5.28407974 2.018532-.93227138 4.4101845-.4196198 5.8692683 1.25807974.5627959.6421081 1.3751604 1.0103227 2.229 1.0103227s1.6662041-.3682146 2.229-1.0103227c1.4908076-1.71474384 3.9503722-2.20866721 5.9876032-1.20241492s3.1398159 3.25963297 2.6841503 5.48566593c-.4556656 2.22603299-2.3549932 3.86492669-4.6237535 3.98974899-.9678845.0570851-1.9310099-.1736057-2.768-.663-.3098099-.1876251-.6968573-.1930617-1.0118149-.0142123-.3149575.1788495-.5085874.514025-.5061851.8762123v4.81h-4v-4.81c.0007064-.3579708-.1899871-.6890149-.5-.868zm-8.5 46.678c-4.418278 0-8-3.581722-8-8s3.581722-8 8-8 8 3.581722 8 8c-.0049599 4.4162219-3.5837781 7.9950401-8 8zm30 0c-4.418278 0-8-3.581722-8-8s3.581722-8 8-8 8 3.581722 8 8c-.0049599 4.4162219-3.5837781 7.9950401-8 8zm13-10c0 1.6568542-1.3431458 3-3 3h-.051c.3807256-3.7929638-1.4281121-7.4724617-4.6640378-9.4874831-3.2359257-2.0150215-7.3359987-2.0150215-10.5719244 0-3.2359257 2.0150214-5.0447634 5.6945193-4.6640378 9.4874831h-10.1c.3807256-3.7929638-1.4281121-7.4724617-4.6640378-9.4874831-3.2359257-2.0150215-7.3359987-2.0150215-10.57192439 0-3.23592567 2.0150214-5.0447634 5.6945193-4.66403781 9.4874831h-.049c-1.65685425 0-3-1.3431458-3-3v-5c-.0182-3.9244492 2.82524642-7.2771696 6.7-7.9 1.29213291-.1857688 2.3041373-1.206346 2.479-2.5l1.149-9.215c.3184378-2.50421 2.4476265-4.3820243 4.972-4.385h17.29c2.1880842-.0016608 4.1230761 1.4196021 4.776 3.508l3.265 10.463c.3731208 1.2096707 1.4930996 2.0333159 2.759 2.029h3.61v2c0 1.6568542 1.3431458 3 3 3h5.411c.3886986.9524388.5887348 1.9712988.589 3z"/><path id="Shape" d="m37.455 24.105c-.3860445-1.2568745-1.5501951-2.1122103-2.865-2.105h-6.59c-.5522847 0-1 .4477153-1 1v8c0 .5522847.4477153 1 1 1h10.56c.3186236.0003381.6183364-.1511813.806973-.4079641.1886365-.2567827.2436143-.5880882.148027-.8920359zm-8.455 5.895v-6.0000361l5.59.0000361c.4381678-.0037251.826659.2810328.955.7l1.655 5.3z"/><path id="Shape" d="m24 22h-6.7c-1.5115086.0051637-2.7862462 1.127343-2.983 2.626l-.779 6.25c-.0355602.2845624.05276.570697.2425222.7857099.1897623.2150129.4627022.3382092.7494778.3382901h9.47c.5522847 0 1-.4477153 1-1v-8c0-.5522847-.4477153-1-1-1zm-7.7 2.88c.0660773-.5022866.4933885-.8783204 1-.88h5.7v6h-7.337z"/><path id="Shape" d="m32 36h-4c-.5522847 0-1 .4477153-1 1s.4477153 1 1 1h4c.5522847 0 1-.4477153 1-1s-.4477153-1-1-1z"/><path id="Shape" d="m18 36h-4c-.5522847 0-1 .4477153-1 1s.4477153 1 1 1h4c.5522847 0 1-.4477153 1-1s-.4477153-1-1-1z"/><path id="Shape" d="m20 5c-1.6568542 0-3 1.34314575-3 3s1.3431458 3 3 3 3-1.34314575 3-3-1.3431458-3-3-3zm0 4c-.5522847 0-1-.44771525-1-1s.4477153-1 1-1 1 .44771525 1 1-.4477153 1-1 1z"/><path id="Shape" d="m32 11c1.6568542 0 3-1.34314575 3-3s-1.3431458-3-3-3-3 1.34314575-3 3 1.3431458 3 3 3zm0-4c.5522847 0 1 .44771525 1 1s-.4477153 1-1 1-1-.44771525-1-1 .4477153-1 1-1z"/></g></g></g></svg>