<?xml version="1.0"?>
<svg xmlns="http://www.w3.org/2000/svg" xmlnsXlink="http://www.w3.org/1999/xlink" xmlnsSvgjs="http://svgjs.com/svgjs" version="1.1" width="512" height="512" x="0" y="0" viewBox="0 0 150 150" style="enable-background:new 0 0 512 512" xmlSpace="preserve"><g><g xmlns="http://www.w3.org/2000/svg"><path d="m43.455 50.705h27.111v3.618h-27.111z" fill="#2f4859" transform="matrix(.707 -.707 .707 .707 -20.435 55.693)" dataOriginal="#2f4859"/><path d="m141.188 38.863h-29.829v22.281h-32.046v10.284h-24.722l-.502-26.505v-12.915c-57.131 1.246-54.067 63.554-54.067 63.554 0 3.882 3.147 7.029 7.029 7.029h134.137c4.867 0 8.812-3.945 8.812-8.812v-46.086c.01-4.867-3.928-8.82-8.795-8.829-.006-.001-.011-.001-.017-.001z" fill="#02a9f4" dataOriginal="#e56353"/><path d="m136.306 101.863c0 11.856-9.611 21.467-21.467 21.467s-21.467-9.611-21.467-21.467c0-11.849 9.601-21.458 21.45-21.467 11.856-.01 21.475 9.594 21.485 21.45-.001.006-.001.012-.001.017z" fill="#3a556a" dataOriginal="#3a556a"/><path d="m126.057 101.863c-.038 6.196-5.092 11.187-11.288 11.149s-11.187-5.092-11.149-11.288c.038-6.162 5.039-11.14 11.201-11.149 6.196-.01 11.226 5.005 11.236 11.201z" fill="#ebf0f3" dataOriginal="#ebf0f3" /><path d="m57.5 101.863c.01 11.866-9.602 21.492-21.467 21.502-11.866.01-21.492-9.602-21.502-21.467s9.602-21.492 21.467-21.502h.035c11.855 0 21.467 9.611 21.467 21.467z" fill="#3a556a" dataOriginal="#3a556a"/><path d="m47.302 101.863c-.038 6.196-5.092 11.187-11.288 11.149s-11.187-5.092-11.149-11.288c.038-6.148 5.018-11.12 11.166-11.149 6.186-.038 11.232 4.945 11.271 11.131.001.053.001.105 0 .157z" fill="#ebf0f3" dataOriginal="#ebf0f3" /><path d="m105.974 26.658c-2.775.245-4.887 2.599-4.83 5.384v20.965h-16.412c-2.868 0-5.194 2.325-5.194 5.194v2.943h31.82v-29.431c-.014-2.811-2.305-5.078-5.116-5.064-.089.001-.178.004-.268.009z" fill="#3a556a" dataOriginal="#3a556a"/><path d="m142.659 54.808c-1.912 0-3.462 1.55-3.462 3.462v8.068c0 1.912 1.55 3.462 3.462 3.462h7.341v-15.061z" fill="#fcd462" dataOriginal="#fcd462" /><path d="m17.387 66.338h-9.349c-.66.004-1.247.419-1.472 1.039l-1.731 4.778c-.287.801.13 1.683.931 1.97.168.06.345.091.523.09h11.045c.851.01 1.548-.672 1.558-1.523 0-.006 0-.012 0-.017v-4.709c.039-.86-.627-1.588-1.486-1.627-.006 0-.013-.001-.019-.001z" fill="#fcd462" dataOriginal="#fcd462" /><path d="m58.296 34.57c-.794.788-.798 2.071-.009 2.865l.009.009 14.248 14.248c.794.794 2.08.794 2.874 0s.794-2.08 0-2.874l-14.266-14.248c-.79-.786-2.066-.786-2.856 0z" fill="#3a556a" dataOriginal="#3a556a"/></g></g></svg>
